HIERARCHY
ROOT Hips
{
    OFFSET 0.000000 0.000000 0.000000
    CHANNELS 6 Xposition Yposition Zposition Zrotation Xrotation Yrotation
    JOINT Spine
    {
        OFFSET -0.000000 14.517291 0.000000
        CHANNELS 3 Zrotation Xrotation Yrotation
        JOINT Spine1
        {
            OFFSET -0.000000 37.558300 0.000000
            CHANNELS 3 Zrotation Xrotation Yrotation
            JOINT Neck
            {
                OFFSET -0.000000 37.404057 3.400369
                CHANNELS 3 Zrotation Xrotation Yrotation
                JOINT Head
                {
                    OFFSET -0.000000 24.785618 -3.540803
                    CHANNELS 3 Zrotation Xrotation Yrotation
                    End Site
                    {
                        OFFSET -0.000000 35.408028 0.000000
                    }
                }
            }
            JOINT LeftShoulder
            {
                OFFSET 6.992933 33.973492 -0.192664
                CHANNELS 3 Zrotation Xrotation Yrotation
                JOINT LeftArm
                {
                    OFFSET 21.527611 0.000000 0.000000
                    CHANNELS 3 Zrotation Xrotation Yrotation
                    JOINT LeftForeArm
                    {
                        OFFSET 56.353916 0.000000 0.000000
                        CHANNELS 3 Zrotation Xrotation Yrotation
                        JOINT LeftHand
                        {
                            OFFSET 47.774071 0.000000 0.000000
                            CHANNELS 3 Zrotation Xrotation Yrotation
                            End Site
                            {
                                OFFSET 26.556021 0.000000 0.000000
                            }
                        }
                    }
                }
            }
            JOINT RightShoulder
            {
                OFFSET -7.065357 33.973492 -0.192664
                CHANNELS 3 Zrotation Xrotation Yrotation
                JOINT RightArm
                {
                    OFFSET -21.527611 0.000000 0.000000
                    CHANNELS 3 Zrotation Xrotation Yrotation
                    JOINT RightForeArm
                    {
                        OFFSET -56.353916 0.000000 0.000000
                        CHANNELS 3 Zrotation Xrotation Yrotation
                        JOINT RightHand
                        {
                            OFFSET -47.774071 0.000000 0.000000
                            CHANNELS 3 Zrotation Xrotation Yrotation
                            End Site
                            {
                                OFFSET -26.556021 0.000000 0.000000
                            }
                        }
                    }
                }
            }
        }
    }
    JOINT LeftUpLeg
    {
        OFFSET 17.704014 0.000000 0.000000
        CHANNELS 3 Zrotation Xrotation Yrotation
        JOINT LeftLeg
        {
            OFFSET -0.000000 -81.181816 0.000000
            CHANNELS 3 Zrotation Xrotation Yrotation
            JOINT LeftFoot
            {
                OFFSET -0.000000 -62.821102 0.000000
                CHANNELS 3 Zrotation Xrotation Yrotation
                JOINT LeftToeBase
                {
                    OFFSET -0.000000 -11.507608 26.556021
                    CHANNELS 3 Zrotation Xrotation Yrotation
                    End Site
                    {
                        OFFSET -0.000000 0.000000 7.081605
                    }
                }
            }
        }
    }
    JOINT RightUpLeg
    {
        OFFSET -17.704014 0.000000 0.000000
        CHANNELS 3 Zrotation Xrotation Yrotation
        JOINT RightLeg
        {
            OFFSET -0.000000 -81.181816 0.000000
            CHANNELS 3 Zrotation Xrotation Yrotation
            JOINT RightFoot
            {
                OFFSET -0.000000 -62.821102 0.000000
                CHANNELS 3 Zrotation Xrotation Yrotation
                JOINT RightToeBase
                {
                    OFFSET -0.000000 -11.507608 26.556021
                    CHANNELS 3 Zrotation Xrotation Yrotation
                    End Site
                    {
                        OFFSET -0.000000 0.000000 7.081605
                    }
                }
            }
        }
    }
}
MOTION
Frames:    11
Frame Time:    0.008333
-9.856764    158.096771    -93.323273    -2.612923    -5.692573    47.720436    -1.327216    -3.436625    0.382373    -2.092628    1.136978    0.156901    -2.695386    6.495599    -21.676664    19.156427    1.069861    -19.913692    16.448406    -7.556973    -17.568426    -14.814629    -5.410935    -50.148441    -6.371793    -11.087009    -99.563339    -11.235777    -15.975008    -25.235767    -19.720713    -6.242281    -3.628933    17.099018    -25.813461    51.294258    -5.077066    0.948561    15.666394    -8.099871    -0.896246    34.808548    22.473677    1.121210    -3.739639    -9.758057    22.711313    -19.626667    -3.363455    -23.578913    41.720291    0.000000    0.000000    0.000000    -10.994940    -13.033830    -21.860302    4.470545    13.556798    -18.516159    6.378841    10.997828    -9.969180    0.000000    0.000000    0.000000    
-9.852002    158.096451    -93.317291    -2.619583    -5.690375    47.752930    -1.324206    -3.471455    0.390539    -2.117847    1.170644    0.160851    -2.578677    6.424139    -21.659386    19.041092    1.110107    -19.925768    16.166925    -7.289093    -17.562452    -15.713545    -4.780646    -50.692116    -6.175157    -11.790166    -99.650932    -10.989403    -16.563341    -24.619030    -19.660469    -6.252258    -3.649558    17.138077    -25.824335    51.281635    -5.046271    0.967127    15.655396    -8.029898    -0.855608    34.746445    22.475550    1.104411    -3.718230    -9.733581    22.712931    -19.636652    -3.382147    -23.575945    41.675461    0.000000    0.000000    0.000000    -10.994049    -13.023137    -21.868917    4.469408    13.543324    -18.549692    6.364384    10.993762    -9.943519    0.000000    0.000000    0.000000    
-9.847825    158.099625    -93.313301    -2.632293    -5.695240    47.784031    -1.314576    -3.498023    0.406917    -2.135411    1.189614    0.166525    -2.459215    6.376224    -21.642651    18.919092    1.127796    -19.936394    15.864021    -6.961900    -17.578693    -16.562307    -4.247443    -51.169849    -6.030195    -12.354818    -99.781616    -10.711306    -17.078167    -24.056538    -19.602777    -6.227665    -3.684237    17.197884    -25.881714    51.297485    -4.983904    1.018919    15.631508    -8.043450    -0.820151    34.777542    22.485531    1.080103    -3.701533    -9.709530    22.731947    -19.668175    -3.389674    -23.583612    41.659115    0.000000    0.000000    0.000000    -10.984289    -13.016024    -21.889015    4.463972    13.538103    -18.549074    6.370295    10.994730    -9.951950    0.000000    0.000000    0.000000    
-9.845383    158.100372    -93.307739    -2.647763    -5.692737    47.811863    -1.317910    -3.541857    0.423231    -2.145755    1.232877    0.173212    -2.345881    6.309932    -21.626560    18.820230    1.149632    -19.944555    15.593915    -6.600894    -17.615145    -17.354578    -3.774153    -51.612366    -5.812572    -12.900771    -99.937050    -10.380282    -17.508783    -23.410782    -19.545069    -6.236858    -3.719012    17.234335    -25.894470    51.290981    -4.945914    1.047704    15.614174    -8.061389    -0.804957    34.802746    22.496096    1.046794    -3.693537    -9.708786    22.750568    -19.650116    -3.391891    -23.575848    41.623047    0.000000    0.000000    0.000000    -10.981070    -13.021358    -21.899012    4.466098    13.543749    -18.552763    6.348136    10.991382    -9.955412    0.000000    0.000000    0.000000    
-9.842876    158.102234    -93.298576    -2.665633    -5.701924    47.839901    -1.306103    -3.575534    0.445564    -2.166235    1.266271    0.181587    -2.256538    6.262887    -21.623703    18.764492    1.174275    -19.959978    15.333396    -6.211345    -17.647205    -18.169821    -3.422657    -52.080322    -5.635744    -13.260075    -100.057755    -10.127696    -17.768461    -22.887478    -19.491056    -6.210494    -3.764387    17.280607    -25.926195    51.297295    -4.902738    1.063619    15.587156    -8.106323    -0.815796    34.873692    22.519112    1.013127    -3.701458    -9.702833    22.786602    -19.675203    -3.410176    -23.599747    41.624638    0.000000    0.000000    0.000000    -10.964295    -13.016896    -21.895420    4.469474    13.538484    -18.564798    6.357595    10.994234    -9.977708    0.000000    0.000000    0.000000    
-9.836693    158.101852    -93.286827    -2.675329    -5.719968    47.864845    -1.300261    -3.614641    0.471156    -2.180582    1.333373    0.191396    -2.152759    6.234629    -21.621853    18.711128    1.140665    -19.968441    15.075911    -5.851949    -17.675564    -18.919258    -3.054371    -52.546303    -5.429823    -13.609456    -100.152245    -9.914219    -17.963985    -22.456478    -19.417973    -6.226141    -3.790414    17.287331    -25.945011    51.264091    -4.853722    1.103198    15.564610    -8.119891    -0.787636    34.866600    22.548685    1.003129    -3.740084    -9.728300    22.795687    -19.662014    -3.376368    -23.583670    41.634853    0.000000    0.000000    0.000000    -10.947898    -13.006789    -21.909674    4.468338    13.550242    -18.539043    6.346836    10.997416    -10.005274    0.000000    0.000000    0.000000    
-9.828704    158.096603    -93.270325    -2.676915    -5.741720    47.900341    -1.295620    -3.647780    0.485840    -2.201659    1.411538    0.198144    -2.070474    6.216272    -21.622198    18.705708    1.095302    -19.969479    14.816015    -5.492417    -17.682819    -19.585402    -2.641387    -53.035683    -5.136205    -14.028458    -100.232330    -9.794177    -18.098272    -22.126242    -19.351572    -6.220941    -3.819016    17.295948    -25.969481    51.230213    -4.815603    1.111831    15.551894    -8.141073    -0.792238    34.876610    22.574930    0.991602    -3.779873    -9.742948    22.820915    -19.676905    -3.375148    -23.610878    41.661110    0.000000    0.000000    0.000000    -10.938861    -12.986547    -21.914986    4.477811    13.571792    -18.518913    6.349436    10.966959    -10.043264    0.000000    0.000000    0.000000    
-9.827544    158.088501    -93.255371    -2.683993    -5.765081    47.934853    -1.283780    -3.671701    0.509574    -2.231934    1.480055    0.207850    -1.980132    6.179842    -21.629953    18.681728    1.073018    -19.984924    14.541737    -5.160925    -17.700617    -20.134451    -2.143448    -53.504871    -4.749915    -14.552485    -100.302345    -9.756803    -18.208115    -21.848661    -19.280090    -6.211271    -3.869267    17.291597    -25.978851    51.206017    -4.787600    1.113983    15.523448    -8.133774    -0.792705    34.875134    22.610920    0.975447    -3.821889    -9.760949    22.851860    -19.679358    -3.348068    -23.616976    41.655830    0.000000    0.000000    0.000000    -10.922091    -12.972523    -21.891129    4.488453    13.589893    -18.549595    6.354069    10.951056    -10.068548    0.000000    0.000000    0.000000    
-9.824144    158.080536    -93.237099    -2.682527    -5.792534    47.965778    -1.269532    -3.689492    0.528092    -2.268839    1.556901    0.215940    -1.908757    6.153731    -21.642134    18.687195    1.044215    -19.998705    14.263790    -4.864295    -17.705595    -20.675844    -1.638396    -53.955246    -4.322481    -15.052239    -100.361343    -9.757740    -18.228981    -21.693018    -19.221716    -6.220962    -3.921798    17.267738    -25.940035    51.178711    -4.773240    1.079515    15.487230    -8.072186    -0.811447    34.878189    22.639282    0.974595    -3.844659    -9.762786    22.877516    -19.699263    -3.355134    -23.649574    41.667698    0.000000    0.000000    0.000000    -10.908146    -12.949735    -21.858717    4.507313    13.610212    -18.571705    6.327181    10.922270    -10.087031    0.000000    0.000000    0.000000    
-9.820529    158.073303    -93.214638    -2.676261    -5.823098    48.004692    -1.257932    -3.699530    0.538391    -2.310485    1.633456    0.221308    -1.821696    6.107493    -21.652807    18.667885    1.032467    -20.017996    13.997008    -4.597193    -17.729939    -21.189552    -1.066245    -54.379917    -3.838450    -15.628243    -100.440338    -9.846378    -18.253677    -21.453190    -19.153992    -6.219148    -3.965987    17.223890    -25.903662    51.140511    -4.778989    1.091656    15.443856    -8.051413    -0.793065    34.868469    22.673656    0.981679    -3.884517    -9.787132    22.884880    -19.671839    -3.355932    -23.663303    41.648876    0.000000    0.000000    0.000000    -10.899191    -12.917403    -21.843462    4.529880    13.629345    -18.604950    6.330589    10.893579    -10.113416    0.000000    0.000000    0.000000    
-9.845260    158.065506    -93.199997    -2.671385    -5.870486    48.062805    -1.244714    -3.641713    0.527715    -2.342956    1.651813    0.218576    -1.727061    6.035334    -21.650518    18.611288    1.056904    -20.034594    13.737145    -4.347778    -17.738035    -21.638826    -0.428111    -54.790508    -3.320481    -16.271917    -100.531738    -9.837526    -18.322226    -21.249660    -19.086809    -6.205953    -4.022692    17.182154    -25.859230    51.133629    -4.785800    1.083103    15.382308    -8.079004    -0.812704    34.876724    22.728870    0.964245    -3.937253    -9.801513    22.928049    -19.682701    -3.350325    -23.676199    41.630447    0.000000    0.000000    0.000000    -10.868413    -12.882661    -21.830021    4.534689    13.654620    -18.640589    6.341224    10.863217    -10.142967    0.000000    0.000000    0.000000    
